<svg preserveAspectRatio="none" width="100%" height="100%" overflow="visible" style="display: block;" viewBox="0 0 12.2033 14.2583" fill="none" xmlns="http://www.w3.org/2000/svg">
<path id="Vector" d="M6.09961 2.08008C6.84655 2.08008 7.54975 2.20425 8.20898 2.45312C8.86827 2.70206 9.45348 3.0492 9.96484 3.49414L9.98242 3.50977L10.5029 2.98926C10.6093 2.88304 10.7312 2.8311 10.8691 2.83105C11.0072 2.83105 11.129 2.88372 11.2354 2.99121C11.3416 3.09888 11.3945 3.22131 11.3945 3.35938C11.3945 3.49743 11.3416 3.61921 11.2354 3.72559L10.7188 4.24219L10.7344 4.25977C11.135 4.70731 11.4767 5.25009 11.7578 5.88672C12.0379 6.52115 12.1787 7.27811 12.1787 8.1582C12.1787 8.99402 12.0176 9.78096 11.6973 10.5176C11.3768 11.2545 10.9409 11.8982 10.3896 12.4482C9.83838 12.9982 9.19415 13.4329 8.45703 13.7529C7.72019 14.0728 6.93412 14.2334 6.09863 14.2334C5.26316 14.2334 4.47748 14.0731 3.74121 13.7529C3.00444 13.4326 2.36062 12.9969 1.80957 12.4463C1.25879 11.8959 0.823319 11.2529 0.503906 10.5166C0.184657 9.78054 0.0253906 8.99445 0.0253906 8.15918C0.0254103 7.32396 0.184454 6.53811 0.503906 5.80176C0.823558 5.06506 1.25957 4.42157 1.81055 3.87012C2.36149 3.31863 3.00542 2.88242 3.74219 2.56152C4.47852 2.24089 5.26409 2.08009 6.09961 2.08008ZM6.10059 3.16992C4.71272 3.16992 3.53354 3.6544 2.56445 4.62305C1.5955 5.59157 1.11035 6.77036 1.11035 8.1582C1.1104 9.54598 1.59498 10.7247 2.56348 11.6924C3.53202 12.6599 4.71098 13.1435 6.09863 13.1436C7.48648 13.1436 8.66567 12.6596 9.63477 11.6924C10.6037 10.7252 11.0889 9.54714 11.0889 8.15918C11.0888 6.77138 10.6042 5.59199 9.63574 4.62305C8.66719 3.65414 7.48825 3.16998 6.10059 3.16992ZM6.09766 4.80859C6.24607 4.80863 6.36917 4.85878 6.46875 4.95801C6.56849 5.05743 6.61816 5.18046 6.61816 5.32812V8.08105C6.61816 8.22894 6.56902 8.35189 6.4707 8.45117C6.37245 8.55037 6.24996 8.60059 6.10156 8.60059C5.95317 8.60053 5.83003 8.55042 5.73047 8.45117C5.63078 8.35187 5.58105 8.22881 5.58105 8.08105V5.32812C5.58105 5.18035 5.63018 5.05741 5.72852 4.95801C5.82677 4.85881 5.94926 4.80859 6.09766 4.80859ZM4.55273 0.0253906H7.64746C7.79731 0.0254922 7.92035 0.0750932 8.01855 0.173828C8.11678 0.272656 8.16602 0.396273 8.16602 0.546875C8.16601 0.69641 8.11678 0.819347 8.01855 0.917969C7.92035 1.0166 7.79732 1.0663 7.64746 1.06641H4.55273C4.40284 1.06641 4.27899 1.01653 4.18066 0.916016C4.08221 0.815337 4.03324 0.690686 4.0332 0.541016C4.0332 0.391478 4.08256 0.269126 4.18066 0.171875C4.27895 0.0744368 4.40257 0.0253906 4.55273 0.0253906Z" fill="var(--fill-0, #100007)" stroke="var(--stroke-0, #100007)" stroke-width="0.05"/>
</svg>
