<svg preserveAspectRatio="none" width="100%" height="100%" overflow="visible" style="display: block;" viewBox="0 0 12.2033 13.5367" fill="none" xmlns="http://www.w3.org/2000/svg">
<path id="Vector" d="M9.43555 0.0253906C9.59245 0.0254757 9.72402 0.0774962 9.83105 0.182617C9.93823 0.28782 9.99121 0.416532 9.99121 0.569336V1.02539H11.0635C11.3643 1.02539 11.6253 1.135 11.8467 1.35645C12.0682 1.57785 12.1787 1.83878 12.1787 2.13965V12.4014C12.1787 12.7009 12.068 12.9601 11.8467 13.1807C11.6253 13.4014 11.3644 13.5117 11.0635 13.5117H1.13574C0.836085 13.5117 0.576045 13.4022 0.355469 13.1816V13.1807C0.134962 12.9601 0.0254396 12.7009 0.0253906 12.4014V2.13965C0.0253906 1.83875 0.134729 1.57784 0.355469 1.35645C0.576086 1.13498 0.836042 1.02539 1.13574 1.02539H2.20801V0.569336C2.20801 0.416458 2.26048 0.287783 2.36621 0.182617C2.47221 0.0773648 2.60089 0.0254069 2.75293 0.0253906C2.90982 0.0253906 3.04123 0.0774916 3.14844 0.182617C3.25568 0.287836 3.30957 0.41649 3.30957 0.569336V1.02539H8.89062V0.569336C8.89062 0.416393 8.94289 0.287813 9.04883 0.182617C9.15473 0.0773566 9.28348 0.0253906 9.43555 0.0253906ZM1.11035 12.4258H11.0889V5.24512H1.11035V12.4258ZM3.15234 6.81152C3.34519 6.81153 3.50535 6.87766 3.63477 7.00879C3.76422 7.13991 3.82903 7.30066 3.8291 7.49316C3.8291 7.68372 3.76453 7.84392 3.63477 7.97461C3.5049 8.10522 3.34423 8.17089 3.15137 8.1709C2.9585 8.1709 2.79835 8.10518 2.66895 7.97461C2.53934 7.84394 2.47461 7.68323 2.47461 7.49121C2.47467 7.29926 2.53913 7.13852 2.66895 7.00781C2.7987 6.87698 2.95948 6.81152 3.15234 6.81152ZM6.15039 6.81152C6.34314 6.81157 6.50344 6.87771 6.63281 7.00879C6.7622 7.13989 6.82707 7.30072 6.82715 7.49316C6.82715 7.68367 6.76251 7.84394 6.63281 7.97461C6.503 8.10517 6.34218 8.17084 6.14941 8.1709C5.9566 8.1709 5.79638 8.10511 5.66699 7.97461C5.53739 7.84393 5.47168 7.68323 5.47168 7.49121C5.47174 7.29921 5.53723 7.13854 5.66699 7.00781C5.79685 6.87705 5.95758 6.81152 6.15039 6.81152ZM9.03125 6.81152C9.2241 6.81152 9.38425 6.87766 9.51367 7.00879C9.64316 7.13992 9.70793 7.30064 9.70801 7.49316C9.70801 7.6837 9.64353 7.84393 9.51367 7.97461C9.38392 8.10522 9.22315 8.1709 9.03027 8.1709C8.83742 8.17089 8.67725 8.10519 8.54785 7.97461C8.41825 7.84394 8.35352 7.68323 8.35352 7.49121C8.35358 7.29923 8.41812 7.13853 8.54785 7.00781C8.6777 6.877 8.83842 6.81154 9.03125 6.81152ZM1.11035 4.29492H11.0889V2.11426H1.11035V4.29492Z" fill="var(--fill-0, #100007)" stroke="var(--stroke-0, #100007)" stroke-width="0.05"/>
</svg>
