<svg preserveAspectRatio="none" width="100%" height="100%" overflow="visible" style="display: block;" viewBox="0 0 46.7912 26.2093" fill="none" xmlns="http://www.w3.org/2000/svg">
<g id="Logo">
<g id="Extra Bold">
<path id="Vector" d="M44.6181 2.85797V4.77496H43.548V1.41367H44.5656V2.03078H44.6028C44.6772 1.82508 44.8041 1.66387 44.9836 1.54716C45.163 1.42899 45.3767 1.3699 45.6247 1.3699C45.8611 1.3699 46.0661 1.42315 46.2397 1.52965C46.4147 1.63469 46.5504 1.78204 46.6467 1.9717C46.7444 2.15989 46.7926 2.38019 46.7911 2.63258V4.77496H45.721V2.84266C45.7225 2.65592 45.6751 2.51003 45.5788 2.40499C45.484 2.29995 45.3519 2.24743 45.1827 2.24743C45.0704 2.24743 44.9712 2.27223 44.8851 2.32183C44.8005 2.36997 44.7348 2.43927 44.6881 2.52972C44.6429 2.62018 44.6196 2.72959 44.6181 2.85797Z" fill="var(--fill-0, #FFFBF8)"/>
<path id="Vector_2" d="M41.3017 4.83842C40.9486 4.83842 40.6452 4.76621 40.3913 4.62178C40.1389 4.47589 39.9442 4.2731 39.807 4.01342C39.6714 3.75228 39.6035 3.44956 39.6035 3.10526C39.6035 2.7595 39.6714 2.45678 39.807 2.1971C39.9442 1.93595 40.1389 1.73317 40.3913 1.58874C40.6452 1.44285 40.9486 1.3699 41.3017 1.3699C41.6547 1.3699 41.9574 1.44285 42.2098 1.58874C42.4637 1.73317 42.6584 1.93595 42.7941 2.1971C42.9313 2.45678 42.9998 2.7595 42.9998 3.10526C42.9998 3.44956 42.9313 3.75228 42.7941 4.01342C42.6584 4.2731 42.4637 4.47589 42.2098 4.62178C41.9574 4.76621 41.6547 4.83842 41.3017 4.83842ZM41.3082 4.03093C41.4366 4.03093 41.5453 3.99154 41.6343 3.91276C41.7233 3.83398 41.7911 3.72456 41.8378 3.5845C41.886 3.44445 41.91 3.28251 41.91 3.09869C41.91 2.91195 41.886 2.74856 41.8378 2.6085C41.7911 2.46845 41.7233 2.35903 41.6343 2.28025C41.5453 2.20147 41.4366 2.16208 41.3082 2.16208C41.1755 2.16208 41.0631 2.20147 40.9712 2.28025C40.8808 2.35903 40.8115 2.46845 40.7633 2.6085C40.7167 2.74856 40.6933 2.91195 40.6933 3.09869C40.6933 3.28251 40.7167 3.44445 40.7633 3.5845C40.8115 3.72456 40.8808 3.83398 40.9712 3.91276C41.0631 3.99154 41.1755 4.03093 41.3082 4.03093Z" fill="var(--fill-0, #FFFBF8)"/>
<path id="Vector_3" d="M37.9814 4.77496V1.41367H39.0515V4.77496H37.9814ZM38.5176 1.02196C38.3673 1.02196 38.2382 0.972353 38.1302 0.873149C38.0223 0.772485 37.9683 0.651396 37.9683 0.509884C37.9683 0.36983 38.0223 0.2502 38.1302 0.150996C38.2382 0.0503319 38.3673 0 38.5176 0C38.6693 0 38.7984 0.0503319 38.9049 0.150996C39.0129 0.2502 39.0668 0.36983 39.0668 0.509884C39.0668 0.651396 39.0129 0.772485 38.9049 0.873149C38.7984 0.972353 38.6693 1.02196 38.5176 1.02196Z" fill="var(--fill-0, #FFFBF8)"/>
<path id="Vector_4" d="M37.4354 1.41367V2.20147H35.3149V1.41367H37.4354ZM35.7591 0.608359H36.8292V3.71799C36.8292 3.78364 36.8395 3.83689 36.8599 3.87774C36.8818 3.91713 36.9131 3.94558 36.954 3.96309C36.9948 3.97914 37.0437 3.98716 37.1006 3.98716C37.1415 3.98716 37.1845 3.98351 37.2297 3.97622C37.2764 3.96746 37.3114 3.96017 37.3348 3.95433L37.4967 4.72682C37.4456 4.74141 37.3734 4.75964 37.28 4.78153C37.1881 4.80341 37.078 4.81727 36.9496 4.82311C36.6987 4.83478 36.4835 4.8056 36.304 4.73557C36.1261 4.66409 35.9897 4.55321 35.8948 4.40294C35.8015 4.25268 35.7562 4.06375 35.7591 3.83616V0.608359Z" fill="var(--fill-0, #FFFBF8)"/>
<path id="Vector_5" d="M32.8749 4.83186C32.6605 4.83186 32.4701 4.79612 32.3038 4.72463C32.1389 4.65169 32.0083 4.54227 31.912 4.39638C31.8172 4.24903 31.7698 4.06448 31.7698 3.84273C31.7698 3.65599 31.8026 3.49843 31.8683 3.37005C31.9339 3.24166 32.0244 3.13735 32.1396 3.05711C32.2549 2.97687 32.3876 2.91633 32.5379 2.87548C32.6882 2.83317 32.8487 2.80473 33.0193 2.79014C33.2105 2.77263 33.3644 2.75439 33.4811 2.73543C33.5978 2.715 33.6824 2.68655 33.7349 2.65008C33.7889 2.61215 33.8159 2.5589 33.8159 2.49033V2.47939C33.8159 2.36706 33.7772 2.28025 33.6999 2.21898C33.6226 2.15771 33.5183 2.12707 33.387 2.12707C33.2455 2.12707 33.1317 2.15771 33.0456 2.21898C32.9595 2.28025 32.9048 2.36487 32.8815 2.47283L31.8945 2.43781C31.9237 2.23357 31.9988 2.05121 32.1199 1.89073C32.2425 1.72879 32.4103 1.60187 32.6233 1.50996C32.8377 1.41659 33.0952 1.3699 33.3957 1.3699C33.6102 1.3699 33.8079 1.39543 33.9888 1.44649C34.1697 1.4961 34.3272 1.56904 34.4615 1.66533C34.5957 1.76016 34.6993 1.87687 34.7722 2.01546C34.8466 2.15406 34.8838 2.31235 34.8838 2.49033V4.77496H33.8772V4.30666H33.8509C33.7911 4.42045 33.7145 4.51674 33.6211 4.59552C33.5292 4.6743 33.4205 4.73338 33.2951 4.77277C33.1711 4.81216 33.031 4.83186 32.8749 4.83186ZM33.2054 4.13159C33.3206 4.13159 33.4242 4.10825 33.5161 4.06156C33.6095 4.01488 33.6839 3.95069 33.7393 3.86899C33.7947 3.78583 33.8225 3.68955 33.8225 3.58013V3.26063C33.7918 3.27668 33.7546 3.29127 33.7109 3.3044C33.6686 3.31753 33.6219 3.32993 33.5708 3.3416C33.5197 3.35327 33.4672 3.36348 33.4132 3.37224C33.3593 3.38099 33.3075 3.38901 33.2579 3.39631C33.1572 3.41236 33.0711 3.43716 32.9997 3.47071C32.9296 3.50427 32.8756 3.54803 32.8377 3.60201C32.8012 3.65453 32.783 3.71726 32.783 3.79021C32.783 3.90108 32.8224 3.9857 32.9012 4.04406C32.9814 4.10241 33.0828 4.13159 33.2054 4.13159Z" fill="var(--fill-0, #FFFBF8)"/>
<path id="Vector_6" d="M26.2224 4.77496V1.41367H27.2399V2.03078H27.2771C27.3472 1.82654 27.4653 1.66533 27.6316 1.54716C27.798 1.42899 27.9964 1.3699 28.2269 1.3699C28.4603 1.3699 28.6602 1.42972 28.8265 1.54935C28.9928 1.66898 29.0986 1.82945 29.1438 2.03078H29.1788C29.2415 1.83091 29.3641 1.67116 29.5464 1.55153C29.7288 1.43045 29.944 1.3699 30.192 1.3699C30.51 1.3699 30.7683 1.47203 30.9667 1.67627C31.1651 1.87906 31.2643 2.15771 31.2643 2.51222V4.77496H30.1942V2.75731C30.1942 2.58954 30.1512 2.46189 30.0651 2.37435C29.979 2.28536 29.8674 2.24086 29.7303 2.24086C29.5829 2.24086 29.4669 2.28901 29.3823 2.38529C29.2992 2.48012 29.2576 2.60777 29.2576 2.76825V4.77496H28.2291V2.74637C28.2291 2.59027 28.1868 2.46699 28.1021 2.37654C28.0175 2.28609 27.9059 2.24086 27.7673 2.24086C27.674 2.24086 27.5915 2.26348 27.52 2.3087C27.4486 2.35247 27.3924 2.4152 27.3515 2.4969C27.3121 2.5786 27.2925 2.67488 27.2925 2.78576V4.77496H26.2224Z" fill="var(--fill-0, #FFFBF8)"/>
<path id="Vector_7" d="M23.6286 4.77496V1.41367H24.6681V2.0264H24.7031C24.7644 1.80465 24.8643 1.6398 25.0029 1.53184C25.1415 1.42242 25.3027 1.36771 25.4865 1.36771C25.5361 1.36771 25.5872 1.37136 25.6397 1.37866C25.6922 1.38449 25.7411 1.39397 25.7863 1.4071V2.33715C25.7353 2.31964 25.6682 2.30578 25.585 2.29557C25.5033 2.28536 25.4304 2.28025 25.3662 2.28025C25.2392 2.28025 25.1247 2.3087 25.0226 2.3656C24.9219 2.42104 24.8424 2.49909 24.7841 2.59975C24.7272 2.69896 24.6987 2.81567 24.6987 2.94988V4.77496H23.6286Z" fill="var(--fill-0, #FFFBF8)"/>
<path id="Vector_8" d="M21.3823 4.83842C21.0292 4.83842 20.7258 4.76621 20.4719 4.62178C20.2196 4.47589 20.0248 4.2731 19.8877 4.01342C19.752 3.75228 19.6841 3.44956 19.6841 3.10526C19.6841 2.7595 19.752 2.45678 19.8877 2.1971C20.0248 1.93595 20.2196 1.73317 20.4719 1.58874C20.7258 1.44285 21.0292 1.3699 21.3823 1.3699C21.7353 1.3699 22.0381 1.44285 22.2905 1.58874C22.5443 1.73317 22.7391 1.93595 22.8747 2.1971C23.0119 2.45678 23.0804 2.7595 23.0804 3.10526C23.0804 3.44956 23.0119 3.75228 22.8747 4.01342C22.7391 4.2731 22.5443 4.47589 22.2905 4.62178C22.0381 4.76621 21.7353 4.83842 21.3823 4.83842ZM21.3889 4.03093C21.5172 4.03093 21.6259 3.99154 21.7149 3.91276C21.8039 3.83398 21.8718 3.72456 21.9184 3.5845C21.9666 3.44445 21.9907 3.28251 21.9907 3.09869C21.9907 2.91195 21.9666 2.74856 21.9184 2.6085C21.8718 2.46845 21.8039 2.35903 21.7149 2.28025C21.6259 2.20147 21.5172 2.16208 21.3889 2.16208C21.2561 2.16208 21.1438 2.20147 21.0519 2.28025C20.9614 2.35903 20.8921 2.46845 20.844 2.6085C20.7973 2.74856 20.7739 2.91195 20.7739 3.09869C20.7739 3.28251 20.7973 3.44445 20.844 3.5845C20.8921 3.72456 20.9614 3.83398 21.0519 3.91276C21.1438 3.99154 21.2561 4.03093 21.3889 4.03093Z" fill="var(--fill-0, #FFFBF8)"/>
<path id="Vector_9" d="M19.4068 1.41367V2.20147H17.2447V1.41367H19.4068ZM17.6955 4.77496V1.24298C17.6955 0.983295 17.7444 0.768108 17.8421 0.597417C17.9398 0.425268 18.0755 0.296885 18.2491 0.212269C18.4227 0.126194 18.6233 0.0831566 18.8509 0.0831566C18.9997 0.0831566 19.1398 0.0948278 19.2711 0.11817C19.4039 0.140054 19.5023 0.159749 19.5665 0.177256L19.3958 0.960682C19.3564 0.947552 19.3083 0.93661 19.2514 0.927857C19.196 0.919103 19.1434 0.914726 19.0938 0.914726C18.9684 0.914726 18.8823 0.942446 18.8356 0.997884C18.7889 1.05332 18.7656 1.12918 18.7656 1.22547V4.77496H17.6955Z" fill="var(--fill-0, #FFFBF8)"/>
<path id="Vector_10" d="M16.8863 2.44L15.9038 2.46626C15.8936 2.39623 15.8658 2.33423 15.8206 2.28025C15.7754 2.22481 15.7163 2.18178 15.6434 2.15114C15.5719 2.11904 15.4887 2.103 15.3939 2.103C15.2699 2.103 15.1641 2.1278 15.0766 2.1774C14.9905 2.227 14.9482 2.29411 14.9497 2.37873C14.9482 2.44438 14.9745 2.50128 15.0284 2.54942C15.0839 2.59756 15.1824 2.63622 15.3239 2.6654L15.9716 2.78795C16.3072 2.85214 16.5566 2.95864 16.72 3.10745C16.8849 3.25625 16.968 3.4532 16.9695 3.6983C16.968 3.9288 16.8995 4.1294 16.7638 4.30009C16.6296 4.47078 16.4458 4.60354 16.2123 4.69837C15.9789 4.79174 15.7119 4.83842 15.4114 4.83842C14.9314 4.83842 14.5528 4.73995 14.2756 4.543C13.9999 4.34459 13.8424 4.07907 13.803 3.74644L14.8599 3.72018C14.8833 3.84273 14.9438 3.9361 15.0416 4.00029C15.1393 4.06448 15.2641 4.09658 15.4158 4.09658C15.5529 4.09658 15.6645 4.07105 15.7506 4.01998C15.8367 3.96892 15.8804 3.90108 15.8819 3.81647C15.8804 3.74061 15.8469 3.68006 15.7812 3.63484C15.7156 3.58815 15.6127 3.55168 15.4727 3.52542L14.8862 3.41381C14.5492 3.35254 14.2983 3.23948 14.1334 3.07462C13.9686 2.90831 13.8869 2.69677 13.8883 2.44C13.8869 2.21533 13.9467 2.02349 14.0678 1.86447C14.1888 1.70399 14.361 1.58144 14.5842 1.49683C14.8074 1.41221 15.0707 1.3699 15.3742 1.3699C15.8294 1.3699 16.1883 1.46546 16.4509 1.65658C16.7135 1.84623 16.8586 2.10737 16.8863 2.44Z" fill="var(--fill-0, #FFFBF8)"/>
<path id="Vector_11" d="M11.1162 2.85797V4.77496H10.0461V1.41367H11.0637V2.03078H11.1009C11.1753 1.82508 11.3022 1.66387 11.4817 1.54716C11.6611 1.42899 11.8749 1.3699 12.1229 1.3699C12.3592 1.3699 12.5642 1.42315 12.7378 1.52965C12.9129 1.63469 13.0485 1.78204 13.1448 1.9717C13.2426 2.15989 13.2907 2.38019 13.2893 2.63258V4.77496H12.2192V2.84266C12.2206 2.65592 12.1732 2.51003 12.0769 2.40499C11.9821 2.29995 11.8501 2.24743 11.6808 2.24743C11.5685 2.24743 11.4693 2.27223 11.3832 2.32183C11.2986 2.36997 11.2329 2.43927 11.1863 2.52972C11.141 2.62018 11.1177 2.72959 11.1162 2.85797Z" fill="var(--fill-0, #FFFBF8)"/>
<path id="Vector_12" d="M7.38292 4.83186C7.16846 4.83186 6.97807 4.79612 6.81176 4.72463C6.64691 4.65169 6.51633 4.54227 6.42005 4.39638C6.32522 4.24903 6.27781 4.06448 6.27781 3.84273C6.27781 3.65599 6.31063 3.49843 6.37628 3.37005C6.44193 3.24166 6.53238 3.13735 6.64763 3.05711C6.76289 2.97687 6.89565 2.91633 7.04591 2.87548C7.19618 2.83317 7.35666 2.80473 7.52735 2.79014C7.71846 2.77263 7.87238 2.75439 7.98909 2.73543C8.1058 2.715 8.19042 2.68655 8.24294 2.65008C8.29692 2.61215 8.32391 2.5589 8.32391 2.49033V2.47939C8.32391 2.36706 8.28524 2.28025 8.20792 2.21898C8.1306 2.15771 8.02629 2.12707 7.89499 2.12707C7.75348 2.12707 7.63968 2.15771 7.55361 2.21898C7.46753 2.28025 7.41283 2.36487 7.38948 2.47283L6.40254 2.43781C6.43172 2.23357 6.50685 2.05121 6.62794 1.89073C6.75049 1.72879 6.91826 1.60187 7.13126 1.50996C7.34572 1.41659 7.60321 1.3699 7.90374 1.3699C8.1182 1.3699 8.31588 1.39543 8.49678 1.44649C8.67769 1.4961 8.83525 1.56904 8.96947 1.66533C9.10368 1.76016 9.20727 1.87687 9.28021 2.01546C9.35461 2.15406 9.39182 2.31235 9.39182 2.49033V4.77496H8.38518V4.30666H8.35892C8.2991 4.42045 8.22251 4.51674 8.12914 4.59552C8.03723 4.6743 7.92854 4.73338 7.80308 4.77277C7.67907 4.81216 7.53902 4.83186 7.38292 4.83186ZM7.71336 4.13159C7.82861 4.13159 7.93219 4.10825 8.0241 4.06156C8.11747 4.01488 8.19188 3.95069 8.24731 3.86899C8.30275 3.78583 8.33047 3.68955 8.33047 3.58013V3.26063C8.29983 3.27668 8.26263 3.29127 8.21886 3.3044C8.17656 3.31753 8.12987 3.32993 8.07881 3.3416C8.02775 3.35327 7.97523 3.36348 7.92125 3.37224C7.86727 3.38099 7.81548 3.38901 7.76588 3.39631C7.66521 3.41236 7.57914 3.43716 7.50765 3.47071C7.43763 3.50427 7.38365 3.54803 7.34572 3.60201C7.30924 3.65453 7.29101 3.71726 7.29101 3.79021C7.29101 3.90108 7.3304 3.9857 7.40918 4.04406C7.48942 4.10241 7.59081 4.13159 7.71336 4.13159Z" fill="var(--fill-0, #FFFBF8)"/>
<path id="Vector_13" d="M3.96801 4.77496V1.41367H5.00747V2.0264H5.04249C5.10376 1.80465 5.2037 1.6398 5.34229 1.53184C5.48089 1.42242 5.64209 1.36771 5.82591 1.36771C5.87552 1.36771 5.92658 1.37136 5.9791 1.37866C6.03162 1.38449 6.08049 1.39397 6.12572 1.4071V2.33715C6.07466 2.31964 6.00755 2.30578 5.92439 2.29557C5.84269 2.28536 5.76975 2.28025 5.70556 2.28025C5.57863 2.28025 5.46411 2.3087 5.36199 2.3656C5.26132 2.42104 5.18181 2.49909 5.12346 2.59975C5.06656 2.69896 5.03811 2.81567 5.03811 2.94988V4.77496H3.96801Z" fill="var(--fill-0, #FFFBF8)"/>
<path id="Vector_14" d="M0 1.17295V0.293238H3.78802V1.17295H2.42906V4.77496H1.36115V1.17295H0Z" fill="var(--fill-0, #FFFBF8)"/>
</g>
<g id="HUB">
<path id="Vector_15" d="M32.7832 26.0102V10.3242H39.3242C40.4986 10.3242 41.4815 10.4901 42.273 10.822C43.0695 11.1539 43.667 11.6186 44.0652 12.216C44.4686 12.8134 44.6703 13.5053 44.6703 14.2916C44.6703 14.8891 44.5452 15.4226 44.295 15.8924C44.0448 16.3571 43.7001 16.7426 43.261 17.0489C42.8219 17.3553 42.3138 17.5698 41.7368 17.6923V17.8455C42.37 17.8761 42.9547 18.0472 43.4908 18.3587C44.032 18.6701 44.4661 19.1042 44.7929 19.6607C45.1197 20.2122 45.283 20.8658 45.283 21.6215C45.283 22.464 45.0686 23.2172 44.6397 23.881C44.2108 24.5396 43.5904 25.0605 42.7785 25.4434C41.9666 25.8213 40.9811 26.0102 39.822 26.0102H32.7832ZM36.5745 22.9542H38.9183C39.7403 22.9542 40.3454 22.7985 40.7335 22.487C41.1267 22.1755 41.3232 21.7415 41.3232 21.1849C41.3232 20.7815 41.2288 20.4343 41.0399 20.1433C40.8509 19.8471 40.5829 19.6199 40.2356 19.4616C39.8884 19.2982 39.4723 19.2165 38.9872 19.2165H36.5745V22.9542ZM36.5745 16.7732H38.6732C39.0868 16.7732 39.4544 16.7043 39.7761 16.5664C40.0978 16.4286 40.348 16.2294 40.5267 15.969C40.7105 15.7086 40.8024 15.3946 40.8024 15.0269C40.8024 14.501 40.616 14.0874 40.2433 13.7861C39.8705 13.4849 39.3676 13.3342 38.7344 13.3342H36.5745V16.7732Z" fill="var(--fill-0, #FFFBF8)"/>
<path id="Vector_16" d="M26.6233 10.3242H30.407V20.442C30.407 21.6113 30.1287 22.6299 29.5721 23.498C29.0156 24.3609 28.2394 25.0298 27.2437 25.5047C26.248 25.9745 25.0915 26.2093 23.7741 26.2093C22.4414 26.2093 21.2772 25.9745 20.2815 25.5047C19.2858 25.0298 18.5122 24.3609 17.9608 23.498C17.4093 22.6299 17.1336 21.6113 17.1336 20.442V10.3242H20.9249V20.1126C20.9249 20.6539 21.0423 21.1364 21.2772 21.5602C21.5172 21.984 21.8516 22.3159 22.2806 22.5559C22.7095 22.7959 23.2073 22.9159 23.7741 22.9159C24.3409 22.9159 24.8362 22.7959 25.26 22.5559C25.6889 22.3159 26.0234 21.984 26.2633 21.5602C26.5033 21.1364 26.6233 20.6539 26.6233 20.1126V10.3242Z" fill="var(--fill-0, #FFFBF8)"/>
<path id="Vector_17" d="M0.999485 26.0102V10.3242H4.79079V16.62H10.9718V10.3242H14.7554V26.0102H10.9718V19.7067H4.79079V26.0102H0.999485Z" fill="var(--fill-0, #FFFBF8)"/>
</g>
</g>
</svg>
