<svg preserveAspectRatio="none" width="100%" height="100%" overflow="visible" style="display: block;" viewBox="0 0 80.8427 45.2827" fill="none" xmlns="http://www.w3.org/2000/svg">
<g id="Logo">
<g id="Extra Bold">
<path id="Vector" d="M77.0881 4.93781V8.24985H75.2392V2.44244H76.9974V3.50864H77.0616C77.1902 3.15324 77.4095 2.87472 77.7195 2.67307C78.0295 2.46891 78.3988 2.36682 78.8273 2.36682C79.2356 2.36682 79.5898 2.45882 79.8897 2.64283C80.1922 2.82431 80.4266 3.07889 80.593 3.40656C80.7618 3.73172 80.845 4.11232 80.8425 4.54838V8.24985H78.9937V4.91135C78.9962 4.58871 78.9143 4.33665 78.7479 4.15517C78.5841 3.97369 78.3559 3.88295 78.0636 3.88295C77.8695 3.88295 77.6981 3.9258 77.5494 4.0115C77.4032 4.09468 77.2897 4.21441 77.2091 4.37068C77.1309 4.52696 77.0906 4.716 77.0881 4.93781Z" fill="var(--fill-0, white)"/>
<path id="Vector_2" d="M71.3582 8.3595C70.7482 8.3595 70.2239 8.23473 69.7853 7.98519C69.3493 7.73313 69.0128 7.38277 68.7759 6.93411C68.5414 6.48293 68.4242 5.95991 68.4242 5.36505C68.4242 4.76767 68.5414 4.24465 68.7759 3.79599C69.0128 3.34481 69.3493 2.99445 69.7853 2.74491C70.2239 2.49285 70.7482 2.36682 71.3582 2.36682C71.9682 2.36682 72.4912 2.49285 72.9272 2.74491C73.3658 2.99445 73.7023 3.34481 73.9367 3.79599C74.1737 4.24465 74.2921 4.76767 74.2921 5.36505C74.2921 5.95991 74.1737 6.48293 73.9367 6.93411C73.7023 7.38277 73.3658 7.73313 72.9272 7.98519C72.4912 8.23473 71.9682 8.3595 71.3582 8.3595ZM71.3695 6.96436C71.5913 6.96436 71.7791 6.8963 71.9329 6.76019C72.0866 6.62408 72.2038 6.43504 72.2845 6.19306C72.3677 5.95108 72.4093 5.6713 72.4093 5.35371C72.4093 5.03107 72.3677 4.74877 72.2845 4.50679C72.2038 4.26482 72.0866 4.07577 71.9329 3.93966C71.7791 3.80355 71.5913 3.7355 71.3695 3.7355C71.1402 3.7355 70.9461 3.80355 70.7873 3.93966C70.631 4.07577 70.5113 4.26482 70.4281 4.50679C70.3474 4.74877 70.3071 5.03107 70.3071 5.35371C70.3071 5.6713 70.3474 5.95108 70.4281 6.19306C70.5113 6.43504 70.631 6.62408 70.7873 6.76019C70.9461 6.8963 71.1402 6.96436 71.3695 6.96436Z" fill="var(--fill-0, white)"/>
<path id="Vector_3" d="M65.6217 8.24985V2.44244H67.4705V8.24985H65.6217ZM66.548 1.76567C66.2884 1.76567 66.0653 1.67997 65.8788 1.50857C65.6922 1.33465 65.599 1.12544 65.599 0.880942C65.599 0.638966 65.6922 0.432279 65.8788 0.26088C66.0653 0.0869599 66.2884 0 66.548 0C66.8101 0 67.0332 0.0869599 67.2172 0.26088C67.4037 0.432279 67.497 0.638966 67.497 0.880942C67.497 1.12544 67.4037 1.33465 67.2172 1.50857C67.0332 1.67997 66.8101 1.76567 66.548 1.76567Z" fill="var(--fill-0, white)"/>
<path id="Vector_4" d="M64.6783 2.44244V3.80355H61.0147V2.44244H64.6783ZM61.7822 1.05108H63.631V6.42369C63.631 6.53712 63.6487 6.62912 63.684 6.6997C63.7218 6.76775 63.776 6.8169 63.8466 6.84715C63.9171 6.87488 64.0016 6.88874 64.0999 6.88874C64.1704 6.88874 64.2448 6.88244 64.3229 6.86984C64.4036 6.85471 64.4641 6.84211 64.5044 6.83203L64.7842 8.16667C64.696 8.19188 64.5712 8.22339 64.4099 8.26119C64.2511 8.299 64.0608 8.32295 63.839 8.33303C63.4055 8.35319 63.0337 8.30278 62.7236 8.1818C62.4161 8.05829 62.1804 7.86672 62.0166 7.6071C61.8553 7.34748 61.7772 7.02107 61.7822 6.62786V1.05108Z" fill="var(--fill-0, white)"/>
<path id="Vector_5" d="M56.799 8.34815C56.4285 8.34815 56.0996 8.2864 55.8122 8.16289C55.5274 8.03686 55.3018 7.84782 55.1354 7.59576C54.9716 7.34118 54.8897 7.02233 54.8897 6.6392C54.8897 6.31657 54.9464 6.04435 55.0598 5.82253C55.1732 5.60072 55.3295 5.4205 55.5286 5.28187C55.7278 5.14324 55.9571 5.03864 56.2168 4.96806C56.4764 4.89496 56.7536 4.84581 57.0486 4.8206C57.3787 4.79036 57.6447 4.75885 57.8463 4.72608C58.048 4.6908 58.1942 4.64164 58.2849 4.57863C58.3782 4.5131 58.4248 4.42109 58.4248 4.30263V4.28372C58.4248 4.08964 58.358 3.93966 58.2244 3.8338C58.0908 3.72794 57.9106 3.675 57.6837 3.675C57.4392 3.675 57.2426 3.72794 57.0939 3.8338C56.9452 3.93966 56.8507 4.08586 56.8104 4.27238L55.1052 4.21189C55.1556 3.85901 55.2854 3.54393 55.4946 3.26667C55.7063 2.98689 55.9962 2.7676 56.3642 2.6088C56.7347 2.44748 57.1796 2.36682 57.6989 2.36682C58.0694 2.36682 58.4109 2.41093 58.7235 2.49915C59.036 2.58485 59.3082 2.71088 59.5401 2.87724C59.772 3.04108 59.951 3.24272 60.077 3.48218C60.2056 3.72163 60.2699 3.99512 60.2699 4.30263V8.24985H58.5307V7.44075H58.4853C58.3819 7.63735 58.2496 7.80371 58.0883 7.93982C57.9295 8.07593 57.7417 8.17802 57.5249 8.24607C57.3107 8.31413 57.0687 8.34815 56.799 8.34815ZM57.3699 7.13828C57.569 7.13828 57.748 7.09795 57.9068 7.01729C58.0681 6.93663 58.1967 6.82573 58.2925 6.68457C58.3882 6.5409 58.4361 6.37454 58.4361 6.1855V5.63349C58.3832 5.66122 58.3189 5.68642 58.2433 5.70911C58.1702 5.73179 58.0895 5.75322 58.0013 5.77338C57.9131 5.79355 57.8224 5.81119 57.7291 5.82632C57.6358 5.84144 57.5464 5.8553 57.4607 5.86791C57.2867 5.89563 57.138 5.93848 57.0145 5.99646C56.8935 6.05443 56.8003 6.13005 56.7347 6.22331C56.6717 6.31405 56.6402 6.42243 56.6402 6.54846C56.6402 6.74003 56.7083 6.88622 56.8444 6.98704C56.983 7.08786 57.1582 7.13828 57.3699 7.13828Z" fill="var(--fill-0, white)"/>
<path id="Vector_6" d="M45.3052 8.24985V2.44244H47.0633V3.50864H47.1276C47.2485 3.15576 47.4527 2.87724 47.7401 2.67307C48.0274 2.46891 48.3702 2.36682 48.7685 2.36682C49.1717 2.36682 49.5171 2.47017 49.8044 2.67685C50.0918 2.88354 50.2745 3.16081 50.3526 3.50864H50.4131C50.5215 3.16333 50.7332 2.88732 51.0483 2.68064C51.3634 2.47143 51.7352 2.36682 52.1637 2.36682C52.7132 2.36682 53.1593 2.54326 53.5021 2.89614C53.8449 3.2465 54.0163 3.72794 54.0163 4.34044V8.24985H52.1675V4.76389C52.1675 4.47403 52.0931 4.25348 51.9444 4.10224C51.7957 3.94849 51.6028 3.87161 51.3659 3.87161C51.1113 3.87161 50.9109 3.95479 50.7648 4.12115C50.6211 4.28498 50.5492 4.50553 50.5492 4.7828V8.24985H48.7722V4.74499C48.7722 4.47529 48.6991 4.2623 48.5529 4.10602C48.4068 3.94975 48.2139 3.87161 47.9745 3.87161C47.8132 3.87161 47.6707 3.91068 47.5472 3.98881C47.4237 4.06443 47.3267 4.17282 47.2561 4.31397C47.1881 4.45512 47.154 4.62148 47.154 4.81304V8.24985H45.3052Z" fill="var(--fill-0, white)"/>
<path id="Vector_7" d="M40.8239 8.24985V2.44244H42.6198V3.50108H42.6803C42.7862 3.11795 42.9588 2.83313 43.1983 2.64661C43.4377 2.45756 43.7163 2.36304 44.0339 2.36304C44.1196 2.36304 44.2078 2.36934 44.2985 2.38195C44.3893 2.39203 44.4737 2.40841 44.5518 2.4311V4.03797C44.4636 4.00772 44.3477 3.98377 44.204 3.96613C44.0629 3.94849 43.9368 3.93966 43.8259 3.93966C43.6066 3.93966 43.4088 3.98881 43.2323 4.08712C43.0584 4.1829 42.921 4.31775 42.8202 4.49167C42.7219 4.66307 42.6728 4.86471 42.6728 5.09661V8.24985H40.8239Z" fill="var(--fill-0, white)"/>
<path id="Vector_8" d="M36.9429 8.3595C36.3329 8.3595 35.8086 8.23473 35.37 7.98519C34.934 7.73313 34.5975 7.38277 34.3605 6.93411C34.1261 6.48293 34.0089 5.95991 34.0089 5.36505C34.0089 4.76767 34.1261 4.24465 34.3605 3.79599C34.5975 3.34481 34.934 2.99445 35.37 2.74491C35.8086 2.49285 36.3329 2.36682 36.9429 2.36682C37.5528 2.36682 38.0759 2.49285 38.5119 2.74491C38.9505 2.99445 39.287 3.34481 39.5214 3.79599C39.7583 4.24465 39.8768 4.76767 39.8768 5.36505C39.8768 5.95991 39.7583 6.48293 39.5214 6.93411C39.287 7.38277 38.9505 7.73313 38.5119 7.98519C38.0759 8.23473 37.5528 8.3595 36.9429 8.3595ZM36.9542 6.96436C37.176 6.96436 37.3638 6.8963 37.5175 6.76019C37.6713 6.62408 37.7885 6.43504 37.8692 6.19306C37.9523 5.95108 37.9939 5.6713 37.9939 5.35371C37.9939 5.03107 37.9523 4.74877 37.8692 4.50679C37.7885 4.26482 37.6713 4.07577 37.5175 3.93966C37.3638 3.80355 37.176 3.7355 36.9542 3.7355C36.7248 3.7355 36.5307 3.80355 36.3719 3.93966C36.2157 4.07577 36.0959 4.26482 36.0128 4.50679C35.9321 4.74877 35.8918 5.03107 35.8918 5.35371C35.8918 5.6713 35.9321 5.95108 36.0128 6.19306C36.0959 6.43504 36.2157 6.62408 36.3719 6.76019C36.5307 6.8963 36.7248 6.96436 36.9542 6.96436Z" fill="var(--fill-0, white)"/>
<path id="Vector_9" d="M33.5297 2.44244V3.80355H29.7942V2.44244H33.5297ZM30.573 8.24985V2.14753C30.573 1.69887 30.6575 1.32708 30.8264 1.03218C30.9952 0.734748 31.2296 0.512937 31.5296 0.366744C31.8295 0.218029 32.1761 0.143672 32.5693 0.143672C32.8264 0.143672 33.0684 0.163837 33.2953 0.204167C33.5246 0.241975 33.6948 0.276003 33.8057 0.30625L33.5108 1.6598C33.4427 1.63712 33.3595 1.61821 33.2612 1.60309C33.1655 1.58796 33.0747 1.5804 32.989 1.5804C32.7722 1.5804 32.6235 1.62829 32.5429 1.72407C32.4622 1.81986 32.4219 1.95093 32.4219 2.11729V8.24985H30.573Z" fill="var(--fill-0, white)"/>
<path id="Vector_10" d="M29.1751 4.21567L27.4774 4.26104C27.4598 4.14005 27.4119 4.03293 27.3338 3.93966C27.2556 3.84388 27.1536 3.76952 27.0275 3.71659C26.904 3.66114 26.7603 3.63341 26.5965 3.63341C26.3823 3.63341 26.1995 3.67626 26.0483 3.76196C25.8996 3.84766 25.8265 3.96361 25.829 4.1098C25.8265 4.22323 25.8718 4.32153 25.9651 4.40471C26.0609 4.48789 26.231 4.55468 26.4755 4.6051L27.5947 4.81682C28.1744 4.92773 28.6054 5.11173 28.8877 5.36883C29.1725 5.62593 29.3162 5.96621 29.3187 6.38966C29.3162 6.78792 29.1977 7.1345 28.9633 7.4294C28.7314 7.72431 28.4138 7.95368 28.0105 8.11752C27.6073 8.27884 27.146 8.3595 26.6268 8.3595C25.7975 8.3595 25.1434 8.18936 24.6645 7.84908C24.1881 7.50628 23.9159 7.04754 23.8478 6.47284L25.674 6.42747C25.7143 6.6392 25.8189 6.80052 25.9878 6.91142C26.1567 7.02233 26.3722 7.07778 26.6343 7.07778C26.8712 7.07778 27.0641 7.03367 27.2128 6.94545C27.3615 6.85723 27.4371 6.74003 27.4396 6.59383C27.4371 6.46276 27.3791 6.35816 27.2657 6.28002C27.1523 6.19936 26.9746 6.13635 26.7326 6.09098L25.7193 5.89815C25.1371 5.79229 24.7036 5.59694 24.4187 5.31212C24.1339 5.02477 23.9927 4.65929 23.9953 4.21567C23.9927 3.8275 24.0961 3.49604 24.3053 3.2213C24.5145 2.94404 24.8119 2.73231 25.1976 2.58611C25.5832 2.43992 26.0382 2.36682 26.5625 2.36682C27.3489 2.36682 27.969 2.53192 28.4227 2.86212C28.8764 3.18979 29.1272 3.64098 29.1751 4.21567Z" fill="var(--fill-0, white)"/>
<path id="Vector_11" d="M19.2059 4.93781V8.24985H17.357V2.44244H19.1151V3.50864H19.1794C19.3079 3.15324 19.5272 2.87472 19.8373 2.67307C20.1473 2.46891 20.5166 2.36682 20.9451 2.36682C21.3534 2.36682 21.7075 2.45882 22.0075 2.64283C22.3099 2.82431 22.5444 3.07889 22.7107 3.40656C22.8796 3.73172 22.9628 4.11232 22.9603 4.54838V8.24985H21.1114V4.91135C21.1139 4.58871 21.032 4.33665 20.8657 4.15517C20.7018 3.97369 20.4737 3.88295 20.1813 3.88295C19.9872 3.88295 19.8158 3.9258 19.6671 4.0115C19.5209 4.09468 19.4075 4.21441 19.3268 4.37068C19.2487 4.52696 19.2084 4.716 19.2059 4.93781Z" fill="var(--fill-0, white)"/>
<path id="Vector_12" d="M12.7557 8.34815C12.3852 8.34815 12.0562 8.2864 11.7689 8.16289C11.4841 8.03686 11.2585 7.84782 11.0921 7.59576C10.9283 7.34118 10.8464 7.02233 10.8464 6.6392C10.8464 6.31657 10.9031 6.04435 11.0165 5.82253C11.1299 5.60072 11.2862 5.4205 11.4853 5.28187C11.6845 5.14324 11.9138 5.03864 12.1734 4.96806C12.4331 4.89496 12.7103 4.84581 13.0052 4.8206C13.3354 4.79036 13.6014 4.75885 13.803 4.72608C14.0046 4.6908 14.1508 4.64164 14.2416 4.57863C14.3348 4.5131 14.3815 4.42109 14.3815 4.30263V4.28372C14.3815 4.08964 14.3147 3.93966 14.1811 3.8338C14.0475 3.72794 13.8673 3.675 13.6404 3.675C13.3959 3.675 13.1993 3.72794 13.0506 3.8338C12.9019 3.93966 12.8074 4.08586 12.767 4.27238L11.0619 4.21189C11.1123 3.85901 11.2421 3.54393 11.4513 3.26667C11.663 2.98689 11.9529 2.7676 12.3209 2.6088C12.6914 2.44748 13.1363 2.36682 13.6555 2.36682C14.0261 2.36682 14.3676 2.41093 14.6802 2.49915C14.9927 2.58485 15.2649 2.71088 15.4968 2.87724C15.7287 3.04108 15.9077 3.24272 16.0337 3.48218C16.1623 3.72163 16.2265 3.99512 16.2265 4.30263V8.24985H14.4873V7.44075H14.442C14.3386 7.63735 14.2063 7.80371 14.045 7.93982C13.8862 8.07593 13.6984 8.17802 13.4816 8.24607C13.2674 8.31413 13.0254 8.34815 12.7557 8.34815ZM13.3266 7.13828C13.5257 7.13828 13.7047 7.09795 13.8635 7.01729C14.0248 6.93663 14.1534 6.82573 14.2491 6.68457C14.3449 6.5409 14.3928 6.37454 14.3928 6.1855V5.63349C14.3399 5.66122 14.2756 5.68642 14.2 5.70911C14.1269 5.73179 14.0462 5.75322 13.958 5.77338C13.8698 5.79355 13.7791 5.81119 13.6858 5.82632C13.5925 5.84144 13.503 5.8553 13.4173 5.86791C13.2434 5.89563 13.0947 5.93848 12.9712 5.99646C12.8502 6.05443 12.757 6.13005 12.6914 6.22331C12.6284 6.31405 12.5969 6.42243 12.5969 6.54846C12.5969 6.74003 12.665 6.88622 12.8011 6.98704C12.9397 7.08786 13.1149 7.13828 13.3266 7.13828Z" fill="var(--fill-0, white)"/>
<path id="Vector_13" d="M6.85566 8.24985V2.44244H8.65157V3.50108H8.71206C8.81793 3.11795 8.99059 2.83313 9.23004 2.64661C9.4695 2.45756 9.74802 2.36304 10.0656 2.36304C10.1513 2.36304 10.2395 2.36934 10.3303 2.38195C10.421 2.39203 10.5055 2.40841 10.5836 2.4311V4.03797C10.4954 4.00772 10.3794 3.98377 10.2358 3.96613C10.0946 3.94849 9.96857 3.93966 9.85767 3.93966C9.63838 3.93966 9.44051 3.98881 9.26407 4.08712C9.09015 4.1829 8.95278 4.31775 8.85196 4.49167C8.75365 4.66307 8.7045 4.86471 8.7045 5.09661V8.24985H6.85566Z" fill="var(--fill-0, white)"/>
<path id="Vector_14" d="M0 2.02654V0.506636H6.54468V2.02654H4.19676V8.24985H2.3517V2.02654H0Z" fill="var(--fill-0, white)"/>
</g>
<g id="HUB">
<path id="Vector_15" d="M56.6406 44.9386V17.8374H67.9416C69.9707 17.8374 71.6689 18.1241 73.0363 18.6975C74.4126 19.271 75.4448 20.0738 76.1329 21.106C76.8298 22.1381 77.1783 23.3335 77.1783 24.6921C77.1783 25.7243 76.9621 26.6462 76.5299 27.4578C76.0976 28.2606 75.5021 28.9267 74.7434 29.456C73.9847 29.9853 73.1069 30.3558 72.11 30.5676V30.8322C73.204 30.8852 74.2141 31.1807 75.1404 31.7188C76.0755 32.257 76.8254 33.0069 77.39 33.9685C77.9546 34.9212 78.2369 36.0505 78.2369 37.3561C78.2369 38.8118 77.8664 40.113 77.1254 41.2599C76.3843 42.3979 75.3124 43.2978 73.9097 43.9594C72.507 44.6122 70.8044 44.9386 68.8018 44.9386H56.6406ZM63.191 39.6587H67.2403C68.6606 39.6587 69.706 39.3896 70.3765 38.8514C71.0558 38.3133 71.3954 37.5634 71.3954 36.6018C71.3954 35.9049 71.2322 35.305 70.9058 34.8021C70.5794 34.2905 70.1163 33.8979 69.5164 33.6244C68.9165 33.3421 68.1975 33.2009 67.3594 33.2009H63.191V39.6587ZM63.191 28.9796H66.8168C67.5314 28.9796 68.1666 28.8605 68.7224 28.6223C69.2782 28.3841 69.7104 28.0401 70.0192 27.5901C70.3368 27.1402 70.4956 26.5977 70.4956 25.9625C70.4956 25.0538 70.1736 24.3392 69.5296 23.8187C68.8856 23.2982 68.0166 23.038 66.9227 23.038H63.191V28.9796Z" fill="var(--fill-0, white)"/>
<path id="Vector_16" d="M45.998 17.8374H52.5351V35.3182C52.5351 37.3385 52.0543 39.0985 51.0927 40.5982C50.1311 42.0891 48.7901 43.2448 47.0698 44.0653C45.3495 44.8769 43.3513 45.2827 41.0753 45.2827C38.7727 45.2827 36.7613 44.8769 35.041 44.0653C33.3207 43.2448 31.9842 42.0891 31.0314 40.5982C30.0786 39.0985 29.6022 37.3385 29.6022 35.3182V17.8374H36.1526V34.7492C36.1526 35.6843 36.3555 36.518 36.7613 37.2503C37.1759 37.9825 37.7538 38.5559 38.4948 38.9705C39.2359 39.3852 40.096 39.5925 41.0753 39.5925C42.0545 39.5925 42.9102 39.3852 43.6425 38.9705C44.3835 38.5559 44.9614 37.9825 45.376 37.2503C45.7906 36.518 45.998 35.6843 45.998 34.7492V17.8374Z" fill="var(--fill-0, white)"/>
<path id="Vector_17" d="M1.72684 44.9386V17.8374H8.27719V28.7149H18.9562V17.8374H25.4934V44.9386H18.9562V34.0479H8.27719V44.9386H1.72684Z" fill="var(--fill-0, white)"/>
</g>
</g>
</svg>
