<svg width="104" height="104" viewBox="0 0 104 104" fill="none" xmlns="http://www.w3.org/2000/svg">
<circle cx="52" cy="52" r="48" stroke="#100007" stroke-width="8" stroke-dasharray="2 16"/>
<circle cx="52.5" cy="52.5" r="29.5" fill="#100007"/>
<path d="M53.012 66.5323C51.1409 66.5323 49.3825 66.177 47.737 65.4663C46.0912 64.7557 44.6575 63.7904 43.436 62.5707C42.2144 61.3511 41.2485 59.9186 40.5383 58.2733C39.8279 56.628 39.4727 54.87 39.4727 52.9993C39.4727 51.1284 39.8279 49.3705 40.5383 47.7257C41.2485 46.0808 42.2144 44.6484 43.436 43.4287C44.6575 42.2089 46.0913 41.2423 47.7373 40.529C49.3833 39.8157 51.142 39.459 53.0133 39.459C56.3542 39.459 59.2633 40.5183 61.7407 42.637C64.218 44.7557 65.7451 47.3949 66.322 50.5547C66.3771 50.8571 66.3117 51.1367 66.1257 51.3933C65.9397 51.6502 65.6954 51.8042 65.393 51.8553C65.0892 51.9104 64.8102 51.8522 64.556 51.6807C64.302 51.5093 64.1474 51.2717 64.0923 50.9676C63.7572 49.0568 62.9843 47.3436 61.7737 45.8283C60.563 44.313 59.046 43.1802 57.2227 42.43V43.022C57.2227 43.7933 56.9557 44.4655 56.4217 45.0386C55.8874 45.6118 55.2348 45.8983 54.4637 45.8983H51.588V48.78C51.588 49.1593 51.438 49.4699 51.138 49.7116C50.838 49.9534 50.4983 50.0743 50.119 50.0743H47.3787V52.9837H55.9307C56.3804 52.9837 56.7164 53.1721 56.9387 53.549C57.1609 53.9257 57.1804 54.3162 56.9973 54.7207C56.7584 55.1689 56.589 55.6412 56.489 56.1377C56.3888 56.6341 56.3387 57.1361 56.3387 57.6437C56.3387 58.823 56.6415 59.9264 57.2473 60.954C57.8531 61.9815 58.4782 62.962 59.1227 63.8953C59.2942 64.122 59.3469 64.3679 59.2807 64.633C59.2144 64.8981 59.057 65.0889 58.8083 65.2053C57.9248 65.634 56.9988 65.9623 56.0303 66.1903C55.0621 66.4183 54.056 66.5323 53.012 66.5323ZM51.588 64.228V61.5026C50.8102 61.5026 50.1572 61.2153 49.629 60.6406C49.101 60.066 48.837 59.392 48.837 58.6187V57.1597L42.0517 50.3743C41.9405 50.8188 41.8628 51.255 41.8183 51.683C41.7739 52.111 41.7517 52.5458 41.7517 52.9873C41.7517 55.8562 42.6839 58.3649 44.5483 60.5133C46.413 62.6618 48.7595 63.9 51.588 64.228ZM63.127 66.5323C63.0154 66.5323 62.9201 66.5034 62.841 66.4457C62.7621 66.3879 62.7084 66.3124 62.68 66.2193C62.3911 65.3802 62.0104 64.6022 61.538 63.8853C61.0655 63.1682 60.5542 62.4679 60.004 61.7843C59.5253 61.1979 59.1281 60.5539 58.8123 59.8523C58.4965 59.151 58.3387 58.4169 58.3387 57.65C58.3387 56.3251 58.8058 55.1955 59.74 54.2613C60.6742 53.3269 61.8021 52.8597 63.1237 52.8597C64.4452 52.8597 65.5735 53.3269 66.5087 54.2613C67.4435 55.196 67.911 56.3242 67.911 57.646C67.911 58.4175 67.7541 59.1531 67.4403 59.8526C67.1265 60.5522 66.7311 61.1961 66.254 61.7843C65.726 62.4732 65.2185 63.1747 64.7317 63.8887C64.2448 64.6024 63.8574 65.3793 63.5697 66.2193C63.5414 66.3124 63.4884 66.3879 63.4107 66.4457C63.3329 66.5034 63.2383 66.5323 63.127 66.5323ZM63.125 63.646C63.4361 63.1793 63.7528 62.7238 64.075 62.2793C64.3972 61.8349 64.7361 61.3904 65.0917 60.946C65.4694 60.4624 65.7917 59.9475 66.0583 59.4013C66.325 58.8553 66.4583 58.2702 66.4583 57.646C66.4583 56.718 66.1361 55.9304 65.4917 55.2833C64.8472 54.6362 64.0583 54.3127 63.125 54.3127C62.1917 54.3127 61.4028 54.6362 60.7583 55.2833C60.1139 55.9304 59.7917 56.7191 59.7917 57.6493C59.7917 58.2693 59.925 58.8529 60.1917 59.4C60.4583 59.9471 60.7805 60.4624 61.1583 60.946C61.5139 61.3904 61.8528 61.8349 62.175 62.2793C62.4972 62.7238 62.8139 63.1793 63.125 63.646ZM63.125 59.3127C62.6583 59.3127 62.2639 59.1529 61.9417 58.8333C61.6194 58.5138 61.4583 58.118 61.4583 57.646C61.4583 57.1793 61.6194 56.7849 61.9417 56.4627C62.2639 56.1404 62.6583 55.9793 63.125 55.9793C63.5917 55.9793 63.9861 56.1404 64.3083 56.4627C64.6305 56.7849 64.7917 57.1793 64.7917 57.646C64.7917 58.118 64.6305 58.5138 64.3083 58.8333C63.9861 59.1529 63.5917 59.3127 63.125 59.3127Z" fill="#FFFBF8"/>
</svg>
