<svg width="104" height="104" viewBox="0 0 104 104" fill="none" xmlns="http://www.w3.org/2000/svg">
<circle cx="52" cy="52" r="48" stroke="#100007" stroke-width="8" stroke-dasharray="2 16"/>
<circle cx="52.5" cy="52.5" r="29.5" fill="#100007"/>
<path d="M46.9122 65.3966V61.5656H38.6962C38.2378 61.5656 37.8953 61.364 37.6689 60.9606C37.4422 60.5571 37.467 60.1648 37.7432 59.7836L42.8572 52.4323H41.6239C41.2132 52.4323 40.9079 52.2532 40.7079 51.895C40.5079 51.5368 40.5301 51.1856 40.7745 50.8416L47.9629 40.6496C48.1895 40.3236 48.5045 40.1606 48.9079 40.1606C49.3112 40.1606 49.6262 40.3236 49.8529 40.6496L52.9955 45.1096L56.1382 40.6496C56.3649 40.3236 56.6799 40.1606 57.0832 40.1606C57.4865 40.1606 57.8042 40.3236 58.0362 40.6496L65.2165 50.8416C65.461 51.1856 65.4832 51.5368 65.2832 51.895C65.0832 52.2532 64.7805 52.4323 64.3752 52.4323H63.1752L68.2555 59.7836C68.5267 60.1648 68.5489 60.5571 68.3222 60.9606C68.0958 61.364 67.756 61.5656 67.3029 61.5656H59.1122V65.3966C59.1122 65.7229 59.0044 65.9936 58.7889 66.209C58.5735 66.4245 58.3028 66.5323 57.9765 66.5323H56.2312C55.905 66.5323 55.6342 66.4245 55.4189 66.209C55.2033 65.9936 55.0955 65.7229 55.0955 65.3966V61.5656H50.9289V65.3966C50.9289 65.7229 50.8211 65.9936 50.6055 66.209C50.3902 66.4245 50.1194 66.5323 49.7932 66.5323H48.0479C47.7217 66.5323 47.4509 66.4245 47.2355 66.209C47.02 65.9936 46.9122 65.7229 46.9122 65.3966ZM59.7499 59.2946H65.0985L58.7745 50.1613H61.7812L57.0832 43.494L54.4962 47.2156L57.0332 50.8416C57.2777 51.1803 57.2999 51.5301 57.0999 51.891C56.8999 52.2519 56.5945 52.4323 56.1839 52.4323H54.9839L59.7499 59.2946ZM40.9259 59.2946H56.9152L50.5912 50.1613H53.6055L48.9079 43.494L44.2099 50.1613H47.2499L40.9259 59.2946ZM40.9259 59.2946H47.2499H44.2099H53.6055H50.5912H56.9152H40.9259ZM59.7499 59.2946H54.9839H58.1572H54.4962H61.7812H58.7745H65.0985H59.7499Z" fill="#FFFBF8"/>
</svg>
