<svg width="104" height="104" viewBox="0 0 104 104" fill="none" xmlns="http://www.w3.org/2000/svg">
<circle cx="52" cy="52" r="48" stroke="#100007" stroke-width="8" stroke-dasharray="2 16"/>
<circle cx="52.5" cy="52.5" r="29.5" fill="#100007"/>
<path d="M51.9927 65.4532C48.9816 65.4532 46.4311 64.4082 44.3414 62.3182C42.2518 60.2284 41.207 57.6779 41.207 54.6668C41.207 52.0962 42.0015 49.5939 43.5904 47.1602C45.1793 44.7264 47.3653 42.6434 50.1484 40.9112C50.5739 40.6347 51.0078 40.6272 51.45 40.8885C51.892 41.1496 52.113 41.5467 52.113 42.0798V44.3965C52.113 45.1192 52.3626 45.7249 52.8617 46.2138C53.3608 46.7027 53.9714 46.9472 54.6934 46.9472C55.0774 46.9472 55.4349 46.8666 55.766 46.7055C56.0971 46.5444 56.3908 46.3023 56.647 45.9792C56.8348 45.7596 57.0519 45.6092 57.2984 45.5278C57.5448 45.4465 57.7787 45.4778 58 45.6218C59.4885 46.6485 60.6573 47.9587 61.5064 49.5525C62.3553 51.146 62.7797 52.8508 62.7797 54.6668C62.7797 57.6779 61.7347 60.2284 59.6447 62.3182C57.5547 64.4082 55.004 65.4532 51.9927 65.4532ZM43.486 54.6668C43.486 55.9819 43.7761 57.2203 44.3564 58.3818C44.9366 59.5434 45.7508 60.5166 46.799 61.3015C46.7101 61.0573 46.6435 60.8053 46.599 60.5455C46.5546 60.2857 46.5324 60.0305 46.5324 59.7798C46.559 59.0954 46.707 58.4553 46.9764 57.8595C47.2457 57.2639 47.6279 56.7186 48.123 56.2235L51.9934 52.4118L55.8717 56.2235C56.3668 56.7186 56.749 57.2639 57.0184 57.8595C57.2877 58.4553 57.433 59.0954 57.4544 59.7798C57.4544 60.0305 57.4321 60.2857 57.3877 60.5455C57.3433 60.8053 57.2793 61.0573 57.1957 61.3015C58.2333 60.5166 59.0448 59.5434 59.6304 58.3818C60.2159 57.2203 60.5087 55.9819 60.5087 54.6668C60.5087 53.5093 60.2635 52.3753 59.773 51.2648C59.2826 50.1544 58.5787 49.1326 57.6614 48.1995C57.1947 48.5168 56.7076 48.7659 56.2 48.9468C55.6925 49.1277 55.1901 49.2182 54.693 49.2182C53.3537 49.2182 52.2356 48.7744 51.3387 47.8868C50.4418 46.999 49.9641 45.8658 49.9057 44.4872V43.8205C47.9364 45.2538 46.3741 46.9498 45.219 48.9085C44.0637 50.8669 43.486 52.7864 43.486 54.6668ZM51.9934 55.5945L49.7164 57.8465C49.4093 58.148 49.1764 58.4804 49.0177 58.8435C48.859 59.2068 48.7797 59.6029 48.7797 60.0318C48.7797 60.9096 49.0917 61.6527 49.7157 62.2612C50.3399 62.8698 51.0996 63.1742 51.9947 63.1742C52.89 63.1742 53.6493 62.8693 54.2724 62.2595C54.8955 61.6497 55.207 60.9056 55.207 60.0272C55.207 59.6038 55.1279 59.2105 54.9697 58.8472C54.8113 58.4836 54.5819 58.151 54.2817 57.8495L51.9934 55.5945Z" fill="#FFFBF8"/>
</svg>
