<svg width="133" height="57" viewBox="0 0 133 57" fill="none" xmlns="http://www.w3.org/2000/svg">
<path d="M94.1578 15.1439V17.6999H92.731V13.2182H94.0877V14.041H94.1373C94.2365 13.7668 94.4058 13.5518 94.645 13.3962C94.8843 13.2386 95.1693 13.1599 95.4999 13.1599C95.8151 13.1599 96.0884 13.2309 96.3198 13.3728C96.5533 13.5129 96.7342 13.7094 96.8625 13.9622C96.9929 14.2132 97.0571 14.5069 97.0551 14.8434V17.6999H95.6283V15.1235C95.6303 14.8745 95.5671 14.68 95.4387 14.54C95.3122 14.3999 95.1362 14.3299 94.9105 14.3299C94.7608 14.3299 94.6285 14.363 94.5137 14.4291C94.4009 14.4933 94.3134 14.5857 94.2511 14.7063C94.1908 14.8269 94.1597 14.9728 94.1578 15.1439Z" fill="white"/>
<path d="M89.7359 17.7845C89.2651 17.7845 88.8605 17.6883 88.5221 17.4957C88.1856 17.3012 87.9259 17.0308 87.743 16.6845C87.5621 16.3364 87.4717 15.9327 87.4717 15.4737C87.4717 15.0126 87.5621 14.609 87.743 14.2628C87.9259 13.9146 88.1856 13.6442 88.5221 13.4516C88.8605 13.2571 89.2651 13.1599 89.7359 13.1599C90.2066 13.1599 90.6102 13.2571 90.9468 13.4516C91.2852 13.6442 91.5449 13.9146 91.7258 14.2628C91.9087 14.609 92.0001 15.0126 92.0001 15.4737C92.0001 15.9327 91.9087 16.3364 91.7258 16.6845C91.5449 17.0308 91.2852 17.3012 90.9468 17.4957C90.6102 17.6883 90.2066 17.7845 89.7359 17.7845ZM89.7446 16.7079C89.9158 16.7079 90.0607 16.6554 90.1794 16.5503C90.298 16.4453 90.3885 16.2994 90.4507 16.1127C90.5149 15.9259 90.547 15.71 90.547 15.4649C90.547 15.2159 90.5149 14.9981 90.4507 14.8113C90.3885 14.6246 90.298 14.4787 90.1794 14.3737C90.0607 14.2686 89.9158 14.2161 89.7446 14.2161C89.5676 14.2161 89.4178 14.2686 89.2953 14.3737C89.1747 14.4787 89.0823 14.6246 89.0181 14.8113C88.9559 14.9981 88.9247 15.2159 88.9247 15.4649C88.9247 15.71 88.9559 15.9259 89.0181 16.1127C89.0823 16.2994 89.1747 16.4453 89.2953 16.5503C89ill.4178 16.6554 89.5676 16.7079 89.7446 16.7079Z" fill="white"/>
<path d="M85.3089 17.6999V13.2182H86.7357V17.6999H85.3089ZM86.0237 12.6959C85.8234 12.6959 85.6512 12.6298 85.5073 12.4975C85.3634 12.3633 85.2914 12.2018 85.2914 12.0132C85.2914 11.8264 85.3634 11.6669 85.5073 11.5346C85.6512 11.4004 85.8234 11.3333 86.0237 11.3333C86.226 11.3333 86.3982 11.4004 86.5402 11.5346C86.6841 11.6669 86.7561 11.8264 86.7561 12.0132C86.7561 12.2018 86.6841 12.3633 86.5402 12.4975C86.3982 12.6298 86.226 12.6959 86.0237 12.6959Z" fill="white"/>
<path d="M84.5809 13.2182V14.2686H81.7535V13.2182H84.5809ZM82.3459 12.1445H83.7726V16.2906C83.7726 16.3782 83.7863 16.4492 83.8135 16.5036C83.8427 16.5562 83.8845 16.5941 83.939 16.6174C83.9934 16.6388 84.0586 16.6495 84.1345 16.6495C84.1889 16.6495 84.2463 16.6447 84.3066 16.6349C84.3689 16.6233 84.4155 16.6135 84.4467 16.6058L84.6626 17.6357C84.5945 17.6552 84.4982 17.6795 84.3737 17.7087C84.2512 17.7379 84.1043 17.7563 83.9331 17.7641C83.5986 17.7797 83.3116 17.7408 83.0724 17.6474C82.8351 17.5521 82.6532 17.4043 82.5268 17.2039C82.4023 17.0036 82.342 16.7517 82.3459 16.4482V12.1445Z" fill="white"/>
<path d="M78.5002 17.7758C78.2143 17.7758 77.9604 17.7281 77.7387 17.6328C77.5189 17.5356 77.3448 17.3897 77.2164 17.1952C77.0899 16.9987 77.0267 16.7526 77.0267 16.457C77.0267 16.208 77.0705 15.9979 77.158 15.8267C77.2456 15.6555 77.3662 15.5165 77.5198 15.4095C77.6735 15.3025 77.8505 15.2218 78.0509 15.1673C78.2512 15.1109 78.4652 15.0729 78.6928 15.0535C78.9476 15.0302 79.1528 15.0058 79.3084 14.9806C79.4641 14.9533 79.5769 14.9154 79.6469 14.8668C79.7189 14.8162 79.7549 14.7452 79.7549 14.6538V14.6392C79.7549 14.4894 79.7033 14.3737 79.6002 14.292C79.4971 14.2103 79.358 14.1694 79.183 14.1694C78.9943 14.1694 78.8426 14.2103 78.7278 14.292C78.613 14.3737 78.5401 14.4865 78.509 14.6304L77.193 14.5837C77.232 14.3114 77.3321 14.0683 77.4936 13.8543C77.657 13.6384 77.8807 13.4691 78.1647 13.3466C78.4506 13.2221 78.7939 13.1599 79.1946 13.1599C79.4806 13.1599 79.7442 13.1939 79.9854 13.262C80.2266 13.3281 80.4367 13.4254 80.6156 13.5538C80.7946 13.6802 80.9327 13.8358 81.0299 14.0206C81.1291 14.2054 81.1787 14.4164 81.1787 14.6538V17.6999H79.8366V17.0755H79.8016C79.7218 17.2272 79.6197 17.3556 79.4952 17.4607C79.3726 17.5657 79.2277 17.6445 79.0604 17.697C78.8951 17.7495 78.7084 17.7758 78.5002 17.7758ZM78.9408 16.8421C79.0945 16.8421 79.2326 16.811 79.3551 16.7487C79.4796 16.6865 79.5788 16.6009 79.6527 16.492C79.7267 16.3811 79.7636 16.2527 79.7636 16.1068V15.6808C79.7228 15.7022 79.6732 15.7217 79.6148 15.7392C79.5584 15.7567 79.4962 15.7732 79.4281 15.7888C79.36 15.8043 79.29 15.818 79.218 15.8296C79.146 15.8413 79.077 15.852 79.0108 15.8617C78.8766 15.8831 78.7618 15.9162 78.6665 15.9609C78.5732 16.0057 78.5012 16.064 78.4506 16.136C78.402 16.206 78.3777 16.2897 78.3777 16.3869C78.3777 16.5348 78.4302 16.6476 78.5352 16.7254C78.6422 16.8032 78.7774 16.8421 78.9408 16.8421Z" fill="white"/>
<path d="M69.6302 17.6999V13.2182H70.987V14.041H71.0366C71.13 13.7687 71.2876 13.5538 71.5093 13.3962C71.7311 13.2386 71.9956 13.1599 72.3029 13.1599C72.6142 13.1599 72.8807 13.2396 73.1024 13.3991C73.3242 13.5586 73.4652 13.7726 73.5255 14.041H73.5722C73.6558 13.7745 73.8192 13.5615 74.0624 13.402C74.3055 13.2406 74.5924 13.1599 74.9231 13.1599C75.3472 13.1599 75.6915 13.296 75.956 13.5683C76.2206 13.8387 76.3528 14.2103 76.3528 14.6829V17.6999H74.926V15.0097C74.926 14.786 74.8687 14.6158 74.7539 14.4991C74.6391 14.3805 74.4903 14.3211 74.3075 14.3211C74.111 14.3211 73.9564 14.3853 73.8435 14.5137C73.7327 14.6401 73.6772 14.8103 73.6772 15.0243V17.6999H72.3059V14.9951C72.3059 14.787 72.2495 14.6226 72.1366 14.502C72.0238 14.3814 71.875 14.3211 71.6902 14.3211C71.5657 14.3211 71.4558 14.3513 71.3605 14.4116C71.2652 14.4699 71.1903 14.5536 71.1358 14.6625C71.0833 14.7714 71.057 14.8998 71.057 15.0477V17.6999H69.6302Z" fill="white"/>
<path d="M66.1719 17.6999V13.2182H67.5578V14.0352H67.6045C67.6862 13.7395 67.8195 13.5197 68.0042 13.3758C68.189 13.2299 68.404 13.1569 68.6491 13.1569C68.7152 13.1569 68.7833 13.1618 68.8533 13.1715C68.9233 13.1793 68.9885 13.1919 69.0488 13.2094V14.4495C68.9807 14.4262 68.8913 14.4077 68.7804 14.3941C68.6714 14.3805 68.5742 14.3736 68.4886 14.3736C68.3194 14.3736 68.1667 14.4116 68.0305 14.4874C67.8963 14.5614 67.7903 14.6654 67.7125 14.7996C67.6366 14.9319 67.5987 15.0875 67.5987 15.2665V17.6999H66.1719Z" fill="white"/>
<path d="M63.1767 17.7845C62.7059 17.7845 62.3013 17.6883 61.9629 17.4957C61.6264 17.3012 61.3667 17.0308 61.1838 16.6845C61.0029 16.3364 60.9125 15.9327 60.9125 15.4737C60.9125 15.0126 61.0029 14.609 61.1838 14.2628C61.3667 13.9146 61.6264 13.6442 61.9629 13.4516C62.3013 13.2571 62.7059 13.1599 63.1767 13.1599C63.6474 13.1599 64.051 13.2571 64.3876 13.4516C64.726 13.6442 64.9857 13.9146 65.1666 14.2628C65.3495 14.609 65.4409 15.0126 65.4409 15.4737C65.4409 15.9327 65.3495 16.3364 65.1666 16.6845C64.9857 17.0308 64.726 17.3012 64.3876 17.4957C64.051 17.6883 63.6474 17.7845 63.1767 17.7845ZM63.1854 16.7079C63.3566 16.7079 63.5015 16.6554 63.6202 16.5503C63.7388 16.4453 63.8293 16.2994 63.8915 16.1127C63.9557 15.9259 63.9878 15.71 63.9878 15.4649C63.9878 15.2159 63.9557 14.9981 63.8915 14.8113C63.8293 14.6246 63.7388 14.4787 63.6202 14.3737C63.5015 14.2686 63.3566 14.2161 63.1854 14.2161C63.0084 14.2161 62.8586 14.2686 62.7361 14.3737C62.6155 14.4787 62.5231 14.6246 62.4589 14.8113C62.3967 14.9981 62.3655 15.2159 62.3655 15.4649C62.3655 15.71 62.3967 15.9259 62.4589 16.1127C62.5231 16.2994 62.6155 16.4453 62.7361 16.5503C62.8586 16.6554 63.0084 16.7079 63.1854 16.7079Z" fill="white"/>
<path d="M60.5426 13.2182V14.2686H57.6598V13.2182H60.5426ZM58.2609 17.6999V12.9906C58.2609 12.6444 58.326 12.3575 58.4563 12.1299C58.5867 11.9003 58.7676 11.7292 58.9991 11.6163C59.2305 11.5016 59.498 11.4442 59.8014 11.4442C59.9999 11.4442 60.1866 11.4598 60.3617 11.4909C60.5387 11.5201 60.67 11.5463 60.7556 11.5697L60.528 12.6142C60.4755 12.5967 60.4113 12.5821 60.3354 12.5705C60.2615 12.5588 60.1915 12.553 60.1253 12.553C59.958 12.553 59.8433 12.5899 59.781 12.6638C59.7188 12.7377 59.6877 12.8389 59.6877 12.9673V17.6999H58.2609Z" fill="white"/>
<path d="M57.1821 14.5866L55.872 14.6217C55.8584 14.5283 55.8214 14.4456 55.7611 14.3737C55.7008 14.2997 55.622 14.2424 55.5248 14.2015C55.4295 14.1587 55.3186 14.1373 55.1922 14.1373C55.0268 14.1373 54.8858 14.1704 54.7691 14.2365C54.6543 14.3027 54.5979 14.3921 54.5998 14.505C54.5979 14.5925 54.6329 14.6683 54.7049 14.7325C54.7788 14.7967 54.9101 14.8483 55.0988 14.8872L55.9625 15.0506C56.4098 15.1362 56.7425 15.2782 56.9603 15.4766C57.1801 15.675 57.291 15.9376 57.293 16.2644C57.291 16.5717 57.1996 16.8392 57.0187 17.0668C56.8397 17.2944 56.5946 17.4714 56.2834 17.5978C55.9722 17.7223 55.6162 17.7845 55.2155 17.7845C54.5755 17.7845 54.0708 17.6532 53.7012 17.3906C53.3335 17.1261 53.1234 16.7721 53.0709 16.3286L54.4802 16.2936C54.5113 16.457 54.5921 16.5814 54.7224 16.667C54.8527 16.7526 55.019 16.7954 55.2213 16.7954C55.4042 16.7954 55.553 16.7614 55.6678 16.6933C55.7825 16.6252 55.8409 16.5348 55.8428 16.4219C55.8409 16.3208 55.7961 16.2401 55.7086 16.1798C55.6211 16.1175 55.4839 16.0689 55.2972 16.0339L54.5152 15.8851C54.0659 15.8034 53.7313 15.6526 53.5115 15.4328C53.2917 15.2111 53.1828 14.929 53.1847 14.5866C53.1828 14.2871 53.2625 14.0313 53.424 13.8193C53.5854 13.6053 53.815 13.4419 54.1126 13.3291C54.4102 13.2163 54.7613 13.1599 55.1659 13.1599C55.7728 13.1599 56.2513 13.2873 56.6014 13.5421C56.9516 13.795 57.1451 14.1431 57.1821 14.5866Z" fill="white"/>
<path d="M49.4887 15.1439V17.6999H48.0619V13.2182H49.4187V14.041H49.4683C49.5675 13.7668 49.7367 13.5518 49.976 13.3962C50.2152 13.2386 50.5002 13.1599 50.8309 13.1599C51.146 13.1599 51.4193 13.2309 51.6508 13.3728C51.8842 13.5129 52.0651 13.7094 52.1935 13.9622C52.3238 14.2132 52.388 14.5069 52.3861 14.8434V17.6999H50.9593V15.1235C50.9612 14.8745 50.898 14.68 50.7696 14.54C50.6432 14.3999 50.4671 14.3299 50.2415 14.3299C50.0917 14.3299 49.9594 14.363 49.8447 14.4291C49.7318 14.4933 49.6443 14.5857 49.5821 14.7063C49.5218 14.8269 49.4906 14.9728 49.4887 15.1439Z" fill="white"/>
<path d="M44.511 17.7758C44.225 17.7758 43.9712 17.7281 43.7494 17.6328C43.5296 17.5356 43.3555 17.3897 43.2271 17.1952C43.1007 16.9987 43.0375 16.7526 43.0375 16.457C43.0375 16.208 43.0812 15.9979 43.1688 15.8267C43.2563 15.6555 43.3769 15.5165 43.5306 15.4095C43.6843 15.3025 43.8613 15.2218 44.0616 15.1673C44.262 15.1109 44.4759 15.0729 44.7035 15.0535C44.9584 15.0302 45.1636 15.0058 45.3192 14.9806C45.4748 14.9533 45.5876 14.9154 45.6577 14.8668C45.7296 14.8162 45.7656 14.7452 45.7656 14.6538V14.6392C45.7656 14.4894 45.7141 14.3737 45.611 14.292C45.5079 14.2103 45.3688 14.1694 45.1937 14.1694C45.005 14.1694 44.8533 14.2103 44.7385 14.292C44.6238 14.3737 44.5508 14.4865 44.5197 14.6304L43.2038 14.5837C43.2427 14.3114 43.3429 14.0683 43.5043 13.8543C43.6677 13.6384 43.8914 13.4691 44.1754 13.3466C44.4614 13.2221 44.8047 13.1599 45.2054 13.1599C45.4913 13.1599 45.7549 13.1939 45.9961 13.262C46.2373 13.3281 46.4474 13.4254 46.6264 13.5538C46.8053 13.6802 46.9434 13.8358 47.0407 14.0206C47.1399 14.2054 47.1895 14.4164 47.1895 14.6538V17.6999H45.8473V17.0755H45.8123C45.7325 17.2272 45.6304 17.3556 45.5059 17.4607C45.3834 17.5657 45.2385 17.6445 45.0712 17.697C44.9058 17.7495 44.7191 17.7758 44.511 17.7758ZM44.9515 16.8421C45.1052 16.8421 45.2433 16.811 45.3659 16.7487C45.4904 16.6865 45.5896 16.6009 45.6635 16.492C45.7374 16.3811 45.7744 16.2527 45.7744 16.1068V15.6808C45.7335 15.7022 45.6839 15.7217 45.6256 15.7392C45.5691 15.7567 45.5069 15.7732 45.4388 15.7888C45.3707 15.8043 45.3007 15.818 45.2287 15.8296C45.1568 15.8413 45.0877 15.852 45.0216 15.8617C44.8874 15.8831 44.7726 15.9162 44.6773 15.9609C44.5839 16.0057 44.5119 16.064 44.4614 16.136C44.4127 16.206 44.3884 16.2897 44.3884 16.3869C44.3884 16.5348 44.4409 16.6476 44.546 16.7254C44.653 16.8032 44.7881 16.8421 44.9515 16.8421Z" fill="white"/>
<path d="M39.9576 17.6999V13.2182H41.3436V14.0352H41.3903C41.472 13.7395 41.6052 13.5197 41.79 13.3758C41.9748 13.2299 42.1898 13.1569 42.4348 13.1569C42.501 13.1569 42.5691 13.1618 42.6391 13.1715C42.7091 13.1793 42.7743 13.1919 42.8346 13.2094V14.4495C42.7665 14.4262 42.677 14.4077 42.5661 14.3941C42.4572 14.3805 42.36 14.3736 42.2744 14.3736C42.1051 14.3736 41.9524 14.4116 41.8163 14.4874C41.6821 14.5614 41.576 14.6654 41.4982 14.7996C41.4224 14.9319 41.3844 15.0875 41.3844 15.2665V17.6999H39.9576Z" fill="white"/>
<path d="M34.667 12.8972V11.7243H39.7177V12.8972H37.9057V17.6999H36.4819V12.8972H34.667Z" fill="white"/>
<path d="M78.3779 46.0136V25.0989H87.0992C88.6651 25.0989 89.9757 25.3201 91.0309 25.7627C92.093 26.2052 92.8896 26.8247 93.4206 27.6213C93.9584 28.4179 94.2274 29.3404 94.2274 30.3888C94.2274 31.1854 94.0606 31.8968 93.727 32.5232C93.3934 33.1427 92.9338 33.6568 92.3483 34.0652C91.7628 34.4737 91.0854 34.7597 90.3161 34.9231V35.1273C91.1603 35.1682 91.9398 35.3962 92.6547 35.8115C93.3763 36.2268 93.955 36.8055 94.3908 37.5476C94.8265 38.2829 95.0443 39.1544 95.0443 40.162C95.0443 41.2853 94.7584 42.2895 94.1865 43.1746C93.6146 44.0528 92.7874 44.7473 91.7049 45.2579C90.6224 45.7617 89.3085 46.0136 87.763 46.0136H78.3779ZM83.433 41.9389H86.558C87.6541 41.9389 88.4608 41.7312 88.9783 41.3159C89.5025 40.9007 89.7646 40.322 89.7646 39.5799C89.7646 39.042 89.6387 38.5791 89.3867 38.191C89.1348 37.7961 88.7774 37.4932 88.3145 37.2821C87.8515 37.0642 87.2966 36.9553 86.6499 36.9553H83.433V41.9389ZM83.433 33.6976H86.2312C86.7826 33.6976 87.2728 33.6057 87.7017 33.4219C88.1306 33.2381 88.4642 32.9725 88.7025 32.6253C88.9476 32.2781 89.0702 31.8594 89.0702 31.3692C89.0702 30.668 88.8217 30.1165 88.3247 29.7148C87.8277 29.3131 87.1571 29.1123 86.3129 29.1123H83.433V33.6976Z" fill="white"/>
<path d="M70.1647 25.0989H75.2096V38.5893C75.2096 40.1483 74.8385 41.5066 74.0964 42.664C73.3543 43.8146 72.3195 44.7064 70.9919 45.3396C69.6643 45.9659 68.1223 46.2791 66.3658 46.2791C64.5888 46.2791 63.0366 45.9659 61.709 45.3396C60.3814 44.7064 59.3499 43.8146 58.6146 42.664C57.8794 41.5066 57.5117 40.1483 57.5117 38.5893V25.0989H62.5668V38.1501C62.5668 38.8718 62.7234 39.5152 63.0366 40.0803C63.3565 40.6453 63.8025 41.0879 64.3744 41.4079C64.9462 41.7278 65.61 41.8878 66.3658 41.8878C67.1215 41.8878 67.7819 41.7278 68.3469 41.4079C68.9188 41.0879 69.3648 40.6453 69.6847 40.0803C70.0047 39.5152 70.1647 38.8718 70.1647 38.1501V25.0989Z" fill="white"/>
<path d="M35.9998 46.0136V25.0989H41.0548V33.4934H49.2961V25.0989H54.341V46.0136H49.2961V37.6089H41.0548V46.0136H35.9998Z" fill="white"/>
</svg>
